<svg viewBox="0 0 726 477" xmlns="http://www.w3.org/2000/svg" fill-rule="evenodd" clip-rule="evenodd"><path d="M.351 294.466l356.253 64.825 136.632 117.497L726.004 283.61l-203.911-61.425L354.317.655.351 294.466z"/><path d="M354.316.655l2.363 359.211" fill="none" stroke="#f4f4f4" stroke-width=".5"/><path d="M311.966 189.785l-20.998 17.419v-34.997l20.998-17.419v34.997z" fill="#fff"/><path d="M302.135 188.741V162.71M290.891 198.134l21.196-17.572" fill="none" stroke="#000" stroke-width=".25" stroke-linecap="round"/><path d="M240.217 249.434l-20.998 17.419v-34.997l20.998-17.419v34.997z" fill="#fff"/><path d="M245.804 250.288l-38.625-5.75" fill="none" stroke="#000" stroke-width=".25"/><path d="M294.551 310.434l-20.998 17.419v-34.997l20.998-17.419v34.997zM168.468 308.939l-15.933 13.217-5.065-.92v-29.875l20.998-17.419v34.997zM459.744 320.113l16.041 21.316v-34.924l-16.041-21.316v34.924zM594.843 345.268l-27.084-8.158v-34.925l27.083 8.159v34.924zM399.824 359.255l16.041 21.315v-34.924l-16.041-21.316v34.925z" fill="#fff"/><path d="M164.846 293.855v4.933" fill="none" stroke="#000" stroke-width=".25" stroke-linecap="round" stroke-linejoin="round"/><path d="M404.136 221.711l16.042 21.315v-34.924l-16.042-21.316v34.925z" fill="#fff"/><path d="M407.465 206.854v4.933" fill="none" stroke="#000" stroke-width=".25" stroke-linecap="round" stroke-linejoin="round"/><path d="M273.553 327.853l4.375 3.188v-11.147l-4.375-3.187v11.146z" fill="#fff"/><path d="M273.553 327.853l4.375 3.188v-11.147l-4.375-3.187v11.146z" fill="none" stroke="#000" stroke-width=".25"/><path d="M294.704 310.733l4.222 2.889v-11.147l-4.222-2.888v11.146z" fill="#fff"/><path d="M294.704 310.733l4.222 2.889v-11.147l-4.222-2.888v11.146z" fill="none" stroke="#000" stroke-width=".25"/><path d="M298.926 313.622l-20.998 17.418v-11.147l20.998-17.418v11.147z" fill="#fff"/><path d="M298.926 313.622l-20.998 17.418v-11.147l20.998-17.418v11.147z" fill="none" stroke="#000" stroke-width=".25"/><path d="M415.987 361.687l-8.267-10.986M407.695 370.287v-35.813" fill="none" stroke="#000" stroke-width=".25" stroke-linecap="round"/><path d="M485.679 309.538l-26.304 10.567M597.346 322.955l-28.948 14.179" fill="none" stroke="#000" stroke-width=".25"/><path d="M584.083 355.55l-16.254-18.511v-34.925l16.254 18.512v34.924z" fill="#fff"/><path d="M584.083 355.55l-16.254-18.511v-34.925l16.254 18.512v34.924z" fill="none" stroke="#000" stroke-width=".25"/></svg>