<svg viewBox="0 0 172 104" xmlns="http://www.w3.org/2000/svg" fill-rule="evenodd" clip-rule="evenodd" stroke-linejoin="round" stroke-miterlimit="1.414"><path d="M44.644 100.075h3.597l2.385-2.074v-9.669l-2.385-2.073h-3.597l-2.385 2.073v9.669l2.385 2.074zm4.816 3.259h-6.034L39 99.486V86.847L43.426 83h6.034l4.425 3.847v12.639l-4.425 3.848z"/><path d="M124.644 17.075h3.598l2.385-2.074V5.332l-2.385-2.073h-3.598l-2.385 2.073v9.669l2.385 2.074zm4.816 3.259h-6.034L119 16.486V3.847L123.426 0h6.034l4.425 3.847v12.639l-4.425 3.848z" fill="#a67a44"/><path d="M88.978 103.257h-5.752L79 99.583V84h3.259v14.099l2.186 1.9h3.314l2.186-1.9V84h3.258v15.583l-4.225 3.674zM158 4.259h13.313V1H158v3.259z" fill="#e6e6e6"/><path d="M163 20.707h3.258V3H163v17.707z" fill="#e6e6e6"/><path d="M0 87.259h13.313V84H0v3.259zM2 95.259h9.998V92H2v3.259z" fill="#a67a44"/><path d="M0 102.708h3.258V85H0v17.708zM161.259 99.994h4.565l2.198-1.993v-9.12l-3.061-1.623h-3.701l-.001 12.736zm0 3.26H158L158.001 84h7.771l5.508 2.921v12.524l-4.199 3.808-5.822.001z" fill="#a67a44"/><path d="M91.197 20.271L83.273 6.778l.035 13.473-3.258.009L80 1h3.66l7.432 12.658V1h3.259v19.24l-3.154.031zM129.197 103.271l-7.924-13.494.035 13.474-3.259.009L118 84h3.66l7.432 12.657V84h3.258v19.24l-3.153.031z"/></svg>