<svg viewBox="0 0 112 45" xmlns="http://www.w3.org/2000/svg" fill-rule="evenodd" clip-rule="evenodd" stroke-linejoin="round" stroke-miterlimit="1.414"><path d="M29.189 11.164h2.352L33.1 9.808V3.486l-1.559-1.355h-2.352l-1.56 1.355v6.322l1.56 1.356zm3.148 2.131h-3.945l-2.893-2.516V2.515L28.392 0h3.945l2.894 2.515v8.264l-2.894 2.516z" fill="#a67a44"/><g fill="#e6e6e6"><path d="M50.997 2.785h8.704V.654h-8.704v2.131z"/><path d="M54.266 13.538h2.13V1.961h-2.13v11.577z"/></g><path d="M7.321 13.253L2.14 4.432l.023 8.808-2.13.006L0 .654h2.393L7.252 8.93V.654h2.131v12.579l-2.062.02z"/><g><path d="M29.189 42.164h2.351l1.56-1.356v-6.322l-1.56-1.355h-2.351l-1.56 1.355v6.322l1.56 1.356zm3.148 2.131h-3.945l-2.893-2.516v-8.264L28.392 31h3.945l2.894 2.515v8.264l-2.894 2.516z"/><path d="M58.175 44.244h-3.761l-2.763-2.402V31.654h2.131v9.218l1.429 1.242h2.167l1.429-1.242v-9.218h2.13v10.188l-2.762 2.402z" fill="#e6e6e6"/><g fill="#a67a44"><path d="M0 33.785h8.704v-2.131H0v2.131zM1.308 39.015h6.536v-2.131H1.308v2.131z"/><path d="M0 43.885h2.13V32.308H0v11.577z"/></g><path d="M105.433 42.111h2.984l1.437-1.303v-5.963l-2.001-1.061h-2.42v8.327zm0 2.131h-2.131l.001-12.588h5.08l3.601 1.91v8.188l-2.745 2.49h-3.806z" fill="#a67a44"/><path d="M84.47 44.253l-5.181-8.822.023 8.809-2.13.006-.032-12.592h2.392l4.86 8.275v-8.275h2.13v12.579l-2.062.02z"/></g></svg>