<svg viewBox="0 0 353 153" xmlns="http://www.w3.org/2000/svg" fill-rule="evenodd" clip-rule="evenodd" stroke-linejoin="round" stroke-miterlimit="1.414"><path d="M314 152.169h19.994V76H314v76.169z" fill="#a67a44"/><path d="M8 134.994h93.409V115H8v19.994z"/><path d="M19.994 134.763H0v-30.647L56.924 0l17.542 9.59-54.472 99.637v25.536z" fill="#a67a44"/><path d="M63 152.169h19.994V76H63v76.169zM259 134.994h93.409V115H259v19.994z" fill="#e6e6e6"/><path d="M270.994 134.763H251v-30.647L307.924 0l17.542 9.59-54.472 99.637v25.536zM176.97 21.595h-11.257l-16.118 16.537v76.955l16.118 16.538h11.256l.001 20.595h-19.942L129 123.465V29.754L157.028 1h19.942v20.595z"/><path d="M177.001 1h19.942l28.028 28.754v93.711l-28.028 28.755h-19.942L177 131.625h11.258l16.118-16.538V38.132l-16.118-16.537h-11.257V1z" fill="#a67a44"/></svg>