<svg viewBox="0 0 352 152" xmlns="http://www.w3.org/2000/svg" xmlns:serif="http://www.serif.com/" fill-rule="evenodd" clip-rule="evenodd" stroke-linejoin="round" stroke-miterlimit="1.414"><g serif:id="500"><path d="M196.551 0l-8.686 20.594 16.119 16.538 20.594-8.378L196.552 0h-.001z" fill="#a67a44"/><path d="M156.666 0l8.685 20.594h22.514L196.551 0h-39.885z" fill="#a67a44"/><path d="M203.983 37.132v76.955l20.595 8.378V28.754l-20.595 8.378zM156.665 0l-28.027 28.754 20.595 8.378 16.118-16.538L156.666 0h-.001z" fill="#e6e6e6"/><path d="M165.351 130.625l-8.685 20.595h39.885l-8.686-20.595h-22.514z" fill="#a67a44"/><path d="M149.233 37.132l-20.595-8.378v93.711l20.595-8.378V37.132zM187.865 130.625l8.686 20.595 28.027-28.755-20.595-8.378-16.118 16.538z"/><path d="M128.638 122.465l28.028 28.755 8.685-20.595-16.118-16.537-20.595 8.377z" fill="#a67a44"/><path d="M323.214 0l-8.686 20.594 16.119 16.538 20.595-8.378L323.215 0h-.001z" fill="#e6e6e6"/><path d="M283.329 0l8.685 20.594h22.514L323.214 0h-39.885z" fill="#e6e6e6"/><path d="M330.647 37.132v76.955l20.594 8.378h.002V28.754l-20.596 8.378zM283.328 0l-28.027 28.754 20.595 8.378 16.118-16.538L283.329 0h-.001z"/><path d="M292.014 130.625l-8.685 20.595h39.885l-8.686-20.595h-22.514z" fill="#e6e6e6"/><path d="M275.896 37.132l-20.595-8.378v93.711l20.595-8.378V37.132zM314.528 130.625l8.686 20.595 28.027-28.755-20.595-8.378-16.118 16.538z" fill="#a67a44"/><path d="M255.301 122.465l28.028 28.755 8.685-20.595-16.118-16.537-20.595 8.377zM3.239 82.201h19.994V0H3.239v82.201z" fill="#e6e6e6"/><path d="M23.234 19.994h65.944V.001H23.234v19.993z" fill="#a67a44"/><path d="M32.116 131.225l-8.272 19.995h50.452l-8.282-19.995H32.116zM66.015 62.207H23.844v19.994h42.171l8.281-19.994h-8.281z"/><path d="M0 127.223l23.844 23.997 8.272-19.996v-.009l-17.978-18.131L0 127.223z" fill="#a67a44"/><path d="M66.014 131.225l8.282 19.995h.001l23.617-23.617-19.994-8.282-11.906 11.904z" fill="#e6e6e6"/><path d="M74.297 62.207l-8.282 19.994 11.906 11.905 19.994-8.282-23.618-23.617z" fill="#a67a44"/><path d="M97.914 93.458v-7.635L77.92 94.106v25.215l19.994 8.282V93.457z" fill="#e6e6e6"/></g></svg>