<svg xmlns="http://www.w3.org/2000/svg" viewBox="0 0 30 30"><defs><style>.cls-1-line-hover,.cls-2-line-hover{fill:none}.cls-2-line-hover{clip-rule:evenodd}.cls-5-line-hover{clip-path:url(#clip-path-line-hover-2)}.cls-7-line-hover{fill:#00b900}</style><clipPath id="clip-path-line-hover"><path class="cls-1-line-hover" d="M4 4h22v22H4z"/></clipPath><clipPath id="clip-path-line-hover-2"><path class="cls-1-line-hover" d="M3.5 4h23v22h-23z"/></clipPath><clipPath id="clip-path-line-hover-3"><path class="cls-2-line-hover" d="M21.23 26H8.77A4.76 4.76 0 0 1 4 21.23V8.77A4.76 4.76 0 0 1 8.77 4h12.46A4.76 4.76 0 0 1 26 8.77v12.46A4.76 4.76 0 0 1 21.23 26"/></clipPath><clipPath id="clip-path-line-hover-5"><path class="cls-2-line-hover" d="M23 14c0-3.58-3.59-6.5-8-6.5S7 10.45 7 14c0 3.22 2.85 5.91 6.7 6.42.26.05.62.17.71.39a1.63 1.63 0 0 1 0 .73l-.11.68c0 .2-.16.79.69.43A25.6 25.6 0 0 0 21.26 18 5.76 5.76 0 0 0 23 14"/></clipPath><clipPath id="clip-path-line-hover-6"><path class="cls-2-line-hover" d="M13.34 12.3h-.57a.16.16 0 0 0-.15.16V16a.15.15 0 0 0 .15.15h.57a.15.15 0 0 0 .15-.15v-3.54a.16.16 0 0 0-.15-.16"/></clipPath><clipPath id="clip-path-line-hover-7"><path class="cls-2-line-hover" d="M17.2 12.3h-.56a.16.16 0 0 0-.15.16v2.07l-1.6-2.16h-.69a.16.16 0 0 0-.16.16V16a.16.16 0 0 0 .16.15h.56a.15.15 0 0 0 .15-.15v-2.13l1.6 2.13h.65a.16.16 0 0 0 .16-.15v-3.39a.16.16 0 0 0-.16-.16"/></clipPath><clipPath id="clip-path-line-hover-8"><path class="cls-2-line-hover" d="M12 15.23h-1.54v-2.77a.16.16 0 0 0-.16-.16h-.56a.16.16 0 0 0-.16.16V16a.12.12 0 0 0 .05.1.15.15 0 0 0 .11 0H12a.16.16 0 0 0 .16-.15v-.57a.16.16 0 0 0-.16-.15"/></clipPath><clipPath id="clip-path-line-hover-9"><path class="cls-2-line-hover" d="M20.31 13.17a.15.15 0 0 0 .15-.15v-.56a.16.16 0 0 0-.15-.16h-2.25a.21.21 0 0 0-.11 0 .14.14 0 0 0 0 .11V16a.12.12 0 0 0 0 .1.15.15 0 0 0 .11 0h2.25a.15.15 0 0 0 .15-.15v-.57a.15.15 0 0 0-.15-.15h-1.53v-.59h1.53a.16.16 0 0 0 .15-.16v-.56a.16.16 0 0 0-.15-.16h-1.53v-.59z"/></clipPath></defs><g id="icon"><g class="cls-5-line-hover" clip-path="url(#clip-path-line-hover)"><g class="cls-5-line-hover" clip-path="url(#clip-path-line-hover-3)"><path class="cls-7-line-hover" d="M-1-1h32v32H-1z"/></g></g><g clip-path="url(#clip-path-line-hover-5)"><path fill="#fff" d="M1.95 2.53h26.02v25.26H1.95z"/></g><g clip-path="url(#clip-path-line-hover-6)"><path class="cls-7-line-hover" d="M7.62 7.3h10.87v13.8H7.62z"/></g><g clip-path="url(#clip-path-line-hover-7)"><path class="cls-7-line-hover" d="M9.04 7.3h13.32v13.8H9.04z"/></g><g clip-path="url(#clip-path-line-hover-8)"><path class="cls-7-line-hover" d="M4.58 7.3h12.56v13.8H4.58z"/></g><g clip-path="url(#clip-path-line-hover-9)"><path class="cls-7-line-hover" d="M12.91 7.3h12.56v13.8H12.91z"/></g></g></svg>