<svg xmlns="http://www.w3.org/2000/svg" viewBox="0 0 504.42 93.08"><defs><style>.cls-1{fill:#231815;}.cls-2{fill:#c7000b;}.cls-3{fill:#e60012;}.cls-4{fill:none;}</style></defs><title>logo-horizontal02</title><g id="logo"><path class="cls-1" d="M251.21,52.38h1.89V40.78h-3.53v2.34h-1.85V39H260.6v4.08h-1.85V40.78h-3.52v11.6h1.89V54h-5.91Z"/><path class="cls-1" d="M266.59,52.38h1.87V40.67h-1.87V39h5.89v1.63h-1.89v5h7.78v-5h-1.9V39h5.89v1.63h-1.87V52.38h1.87V54h-5.89V52.38h1.9v-5h-7.78v5h1.89V54h-5.89Z"/><path class="cls-1" d="M288.86,52.38h1.87V40.67h-1.87V39h10.86v3.48h-1.85V40.78h-5V45.6h5.31v1.75h-5.31V52.3h5.37V50.49h1.85V54H288.86Z"/><path class="cls-1" d="M319.62,52.38h1.87V40.67h-1.87V39h6.51a8.48,8.48,0,0,1,2.76.32,3.8,3.8,0,0,1,2.61,3.88,4.07,4.07,0,0,1-3.1,4.21v0a1.81,1.81,0,0,1,.64.7l2.12,3.69c.24.41.51.49,1,.49h.45V54h-1.27c-1.28,0-1.58-.23-2.09-1.13L327,48.81A1.47,1.47,0,0,0,325.4,48h-1.78v4.4h1.85V54h-5.85Zm7-6.14a2.59,2.59,0,0,0,2.72-2.83A2.3,2.3,0,0,0,328,41.06a5.18,5.18,0,0,0-1.85-.28h-2.48v5.46Z"/><path class="cls-1" d="M338.68,52.38h1.87V40.67h-1.87V39h10.86v3.48h-1.85V40.78h-5V45.6H348v1.75h-5.31V52.3h5.38V50.49h1.84V54H338.68Z"/><path class="cls-1" d="M356.36,52.38h1.87V40.67h-1.87V39h7a6.26,6.26,0,0,1,2.57.4,4.41,4.41,0,0,1,2.55,4.25,4.44,4.44,0,0,1-2.82,4.4,6.56,6.56,0,0,1-2.25.32h-3v4h1.89V54h-5.89Zm6.78-5.71a4.35,4.35,0,0,0,1.68-.3,2.72,2.72,0,0,0,1.51-2.68A2.7,2.7,0,0,0,365,41.14a4,4,0,0,0-1.83-.36h-2.8v5.89Z"/><path class="cls-1" d="M382.09,38.78a7.58,7.58,0,0,1,7.72,7.65,7.72,7.72,0,1,1-15.43,0A7.57,7.57,0,0,1,382.09,38.78Zm0,13.62a5.7,5.7,0,0,0,5.51-6,5.52,5.52,0,1,0-11,0A5.7,5.7,0,0,0,382.09,52.4Z"/><path class="cls-1" d="M396.05,52.38h1.87V40.67h-1.87V39h6.5a8.51,8.51,0,0,1,2.77.32,3.8,3.8,0,0,1,2.61,3.88,4.07,4.07,0,0,1-3.1,4.21v0a1.81,1.81,0,0,1,.64.7l2.12,3.69c.24.41.51.49,1,.49h.45V54H407.8c-1.27,0-1.57-.23-2.08-1.13l-2.32-4.1a1.44,1.44,0,0,0-1.57-.83h-1.78v4.4h1.85V54h-5.85Zm7-6.14a2.58,2.58,0,0,0,2.72-2.83,2.29,2.29,0,0,0-1.4-2.35,5.22,5.22,0,0,0-1.85-.28h-2.48v5.46Z"/><path class="cls-1" d="M418,52.38h1.89V40.78h-3.53v2.34h-1.84V39h12.87v4.08h-1.84V40.78H422v11.6h1.89V54H418Z"/><path class="cls-1" d="M433.38,52.38h1.87V40.67h-1.87V39h10.86v3.48h-1.85V40.78h-5V45.6h5.31v1.75h-5.31V52.3h5.38V50.49h1.84V54H433.38Z"/><path class="cls-1" d="M451.06,52.38h1.87V40.67h-1.87V39h6.5a8.51,8.51,0,0,1,2.77.32,3.8,3.8,0,0,1,2.61,3.88,4.07,4.07,0,0,1-3.1,4.21v0a1.81,1.81,0,0,1,.64.7l2.12,3.69c.23.41.51.49,1,.49h.45V54h-1.28c-1.27,0-1.57-.23-2.08-1.13l-2.32-4.1a1.45,1.45,0,0,0-1.57-.83h-1.78v4.4h1.84V54h-5.84Zm7-6.14a2.58,2.58,0,0,0,2.72-2.83,2.29,2.29,0,0,0-1.4-2.35,5.22,5.22,0,0,0-1.85-.28h-2.48v5.46Z"/><polygon class="cls-2" points="84.88 61.84 67.5 57.76 67.5 36.04 84.88 31.24 84.88 61.84"/><polygon class="cls-3" points="40.34 70.17 67.5 57.76 67.5 36.04 40.34 23.63 40.34 70.17"/><path class="cls-1" d="M216.94,41.66h11.24V39h-2.75A2.87,2.87,0,0,1,224,40.79H217.9a42,42,0,0,0,7.29-8.68l-2.55-1.58a41.47,41.47,0,0,1-8.35,10.26H211.9V34.3h7.62V31.58h-2.75a2.89,2.89,0,0,1-1.49,1.86H211.9v-5h-2.81v5h-8.75v.86h8.75v6.49H196.51v.87h16.84A65.09,65.09,0,0,1,194,53.42l.28.77a62.73,62.73,0,0,0,9.52-3.86V64.16h2.69V60.61h13.75v3.61H223l0-18.75h-2.75a2.88,2.88,0,0,1-1.39,1.81h-9.56A57.6,57.6,0,0,0,216.94,41.66ZM206.47,59.74v-5h13.75v5Zm13.75-11.53v5.63H206.47V48.91l1.25-.7Z"/><path class="cls-1" d="M152.51,30.92l.45-.69a9.86,9.86,0,0,1,5.91,4.52l-2.12,1.51S154.42,31.86,152.51,30.92Z"/><path class="cls-1" d="M165.35,28.53l.39-.48a7,7,0,0,1,4.6,3.17L168,32.48A9.4,9.4,0,0,0,165.35,28.53Z"/><path class="cls-1" d="M184.74,31.74H182a3,3,0,0,1-1.55,1.9h-5.61a58.42,58.42,0,0,0,4-4.67l-3.29-.09s-1.06,3.51-1.62,4.76H162.24v.86h22.49Z"/><path class="cls-1" d="M167.93,49.58c-6.57-.16-8.58-2.35-9.08-3.1V38.87h-2.17a2.33,2.33,0,0,1-1.23,1.49v0H149.8v.87H156v5.79l-5.33,2.43,1.8,3.06,4-4.73h2.32v0c4.5,5.9,24.69,3.66,24.69,3.66V49.2C178.31,50.13,167.93,49.58,167.93,49.58Z"/><path class="cls-1" d="M182.3,35.19H180a2.4,2.4,0,0,1-1.18,1.51H166.19V35.5h-2.73V48.15h2.73V47.06h13.33V48.2h2.77Zm-2.78,2.44V40H166.19V37.63Zm-13.33,3.24h13.33v2.19H166.19Zm0,5.33V43.92h13.33V46.2Z"/><path class="cls-1" d="M161.34,58l.45-.45a9.23,9.23,0,0,1,5.06,3.5l-2.12,1.84S162.2,58.26,161.34,58Z"/><path class="cls-1" d="M183.78,53.06H181a2.92,2.92,0,0,1-1.27,1.74h-3.37V52.69h-2.77s0,.9,0,2.11H151.94v.86h21.7c0,2.12,0,4.7,0,5.36,0,1.16-1.2,1-1.2,1h-1.69l0,.58a2.69,2.69,0,0,1,1.94.62c.38.46.25,1.36.95,1.57a2.57,2.57,0,0,0,1.79-.57,2.72,2.72,0,0,0,1-2.33V55.66h7.39Z"/><path class="cls-1" d="M123.23,39.28H120.5A2.92,2.92,0,0,1,119,41.15h-3.79V35.64h8V32.9h-2.72a3,3,0,0,1-1.53,1.88h-3.72V29h-2.79v5.75H105.8v.86h6.59v5.52h-8V42h18.8Z"/><path class="cls-1" d="M123.28,45.87h-2.72a2.94,2.94,0,0,1-1.47,1.84H116c1.1-.9,4-4.05,4-4.05l-3.31-1.32a37.25,37.25,0,0,1-1.24,5.17l.32.2h-5.38l1.83-.79A20.74,20.74,0,0,0,109,42.61l-.59.35c.48.51,1.4,4,1.6,4.75h-5.47v.85h7.86v5.63h-6.58v.86h6.58v9.44h2.79V55.05h8V52.48h-2.72a2.86,2.86,0,0,1-1.25,1.71h-4V48.56h8.09Z"/><path class="cls-1" d="M134.52,57.68a29.8,29.8,0,0,0,4.28-11.27h0v-.79H127.48V32.26h7.81v8.58s.14,1.25-.92,1.25h-1.11v.63s1.6.1,1.6,1,3.13,1.59,3.13-2.9V29.62h-2.72a2.84,2.84,0,0,1-1.37,1.78h-6.42v-2H124.9V64.28h2.58V46.41H136a41.66,41.66,0,0,1-2.67,9.83,22.93,22.93,0,0,1-4.19-8.78l-.6.12a27.48,27.48,0,0,0,3.74,11,27.7,27.7,0,0,1-4,6l.29.47a33,33,0,0,0,4.58-5.19,16.47,16.47,0,0,0,5.28,4.94L140.56,62A18.75,18.75,0,0,1,134.52,57.68Z"/><rect class="cls-4" x="0.55" width="503.87" height="93.08"/></g></svg>