<?xml version="1.0" encoding="UTF-8"?>
<svg width="30px" height="30px" viewBox="0 0 30 30" version="1.1" xmlns="http://www.w3.org/2000/svg" xmlns:xlink="http://www.w3.org/1999/xlink">
    <!-- Generator: Sketch 48.1 (47250) - http://www.bohemiancoding.com/sketch -->
    <title>medium-logo-default@2x</title>
    <desc>Created with Sketch.</desc>
    <defs></defs>
    <g id="Donation-box--mockup" stroke="none" stroke-width="1" fill="none" fill-rule="evenodd">
        <g id="medium-logo-default">
            <g id="fb-logo_hover">
                <circle id="Oval-Copy" opacity="0.691179801" cx="15" cy="15" r="15"></circle>
                <g id="Monogram-Copy" transform="translate(4.200000, 4.200000)" fill-rule="nonzero">
                    <rect id="Rectangle-path" fill="#9C9C9C" x="0" y="0" width="21.6" height="21.6"></rect>
                    <path d="M5.15454428,7.22389906 C5.1725728,7.04577126 5.10464492,6.86971174 4.97163542,6.74982498 L3.61675501,5.11765568 L3.61675501,4.87384615 L7.82365869,4.87384615 L11.0753717,12.0052747 L13.9341694,4.87384615 L17.9446154,4.87384615 L17.9446154,5.11765568 L16.7861927,6.22834351 C16.6863239,6.30446928 16.6367839,6.42958739 16.657479,6.55342288 L16.657479,14.7142695 C16.6367839,14.8381049 16.6863239,14.963223 16.7861927,15.0393488 L17.9175178,16.1500367 L17.9175178,16.3938462 L12.2270201,16.3938462 L12.2270201,16.1500367 L13.3989916,15.0122589 C13.5141564,14.8971265 13.5141564,14.8632642 13.5141564,14.6871795 L13.5141564,8.09077738 L10.255669,16.3667562 L9.81533291,16.3667562 L6.02166774,8.09077738 L6.02166774,13.637444 C5.99003754,13.8706415 6.06748651,14.1054203 6.2316742,14.2740578 L7.75591467,16.1229467 L7.75591467,16.3667562 L3.43384615,16.3667562 L3.43384615,16.1229467 L4.95808662,14.2740578 C5.12107888,14.1051407 5.19401174,13.8688045 5.15454428,13.637444 L5.15454428,7.22389906 Z" id="Shape" fill="#FFFFFF"></path>
                </g>
            </g>
        </g>
    </g>
</svg>