<svg viewBox="0 0 27 26" xmlns="http://www.w3.org/2000/svg" fill-rule="evenodd" clip-rule="evenodd" stroke-linejoin="round" stroke-miterlimit="1.414"><path d="M26.164.322a1.044 1.044 0 0 1 0 1.525l-11.283 10.54a2.391 2.391 0 0 1-3.264.033l-.019-.018L.331 1.849A1.046 1.046 0 0 1 .332.322a1.197 1.197 0 0 1 1.633 0l10.6 9.902a1 1 0 0 0 1.365 0L24.531.322a1.197 1.197 0 0 1 1.633 0z" fill-opacity=".706" fill-rule="nonzero"/><path d="M26.164 12.322a1.044 1.044 0 0 1 0 1.525l-11.283 10.54a2.391 2.391 0 0 1-3.264.033l-.019-.018L.331 13.849a1.046 1.046 0 0 1 .001-1.527 1.197 1.197 0 0 1 1.633 0l10.6 9.902a1 1 0 0 0 1.365 0l10.601-9.902a1.197 1.197 0 0 1 1.633 0z" fill-opacity=".706" fill-rule="nonzero"/></svg>