<?xml version="1.0" encoding="UTF-8" standalone="no"?><!DOCTYPE svg PUBLIC "-//W3C//DTD SVG 1.1//EN" "http://www.w3.org/Graphics/SVG/1.1/DTD/svg11.dtd"><svg width="100%" height="100%" viewBox="0 0 1000 1000" version="1.1" xmlns="http://www.w3.org/2000/svg" xmlns:xlink="http://www.w3.org/1999/xlink" xml:space="preserve" style="fill-rule:evenodd;clip-rule:evenodd;stroke-linejoin:round;stroke-miterlimit:1.41421;"><g><path d="M441.97,10.5c-7.54,1.83 -14.16,7.31 -16.9,13.93c-1.83,4.34 -2.51,29 -2.06,81.98l0.68,75.81l5.94,5.94c4.11,4.11 9.36,6.39 16.67,7.08c9.59,1.14 10.96,0.68 18.5,-6.85l7.99,-7.99l0,-75.59c0,-80.15 -0.68,-86.09 -10.96,-91.11c-5.7,-2.98 -14.61,-4.57 -19.86,-3.2Z" style="fill:#fff;fill-rule:nonzero;"/><path d="M642.92,79.69c-7.08,3.88 -103.9,100.71 -107.56,107.56c-9.59,18.04 2.28,36.08 23.75,36.08c7.77,0 11.42,-3.2 63.71,-55.49c53.89,-53.89 55.49,-55.72 55.49,-64.63c0,-10.5 -4.34,-17.81 -13.7,-22.61c-7.76,-4.11 -15.29,-4.34 -21.69,-0.91Z" style="fill:#fff;fill-rule:nonzero;"/><path d="M234.16,95.22c-12.79,5.48 -19.18,20.78 -13.93,32.66c1.6,4.11 26.72,30.83 55.49,59.37l52.29,52.06l10.29,0c11.65,0 18.72,-4.11 23.98,-14.16c7.31,-13.93 5.02,-17.13 -53.44,-75.59c-46.36,-46.36 -55.49,-54.35 -62.11,-55.26c-4.34,-0.68 -10.05,-0.23 -12.57,0.92Z" style="fill:#fff;fill-rule:nonzero;"/><path d="M430.09,252.55c-22.61,7.99 -36.76,21.24 -47.04,43.39c-5.02,10.73 -5.02,11.88 -6.17,182.92l-1.14,172.41l-16.67,-29.23c-9.36,-15.99 -20.55,-32.66 -25.12,-37.22c-17.35,-17.58 -46.13,-24.89 -69.88,-18.04c-23.98,7.08 -37.91,19.87 -45.9,42.47c-4.57,12.33 -5.02,42.48 -1.14,57.09c11.19,42.93 60.97,156.88 93.4,213.51c30.6,53.66 66.22,100.48 81.29,107.79c17.13,8.22 36.99,-6.17 34.48,-25.12c-0.69,-6.39 -4.34,-12.33 -13.25,-22.84c-44.3,-50.47 -90.89,-137.24 -135.87,-252.79c-8.22,-20.78 -10.5,-30.14 -11.42,-44.76c-1.14,-18.04 -1.14,-18.5 5.02,-23.29c7.76,-6.17 17.13,-6.39 24.43,-0.46c3.2,2.51 22.61,33.57 43.16,68.96c20.32,35.62 39.28,67.82 41.79,71.93c9.13,13.93 26.26,16.44 38.36,5.48l7.54,-6.62l1.14,-221.28c1.14,-240.92 0.46,-226.53 14.39,-234.75c9.59,-5.71 23.29,-3.43 32.2,5.48l7.08,7.08l1.14,155.97c1.37,174.92 0.23,165.56 18.04,170.81c7.31,2.05 10.05,2.05 17.13,-1.37c14.61,-7.08 15.07,-8.9 15.07,-84.49c0,-72.39 0.46,-76.5 11.87,-84.26c6.4,-4.57 20.55,-4.57 29.23,-0.23c13.24,6.85 13.7,9.82 13.7,89.52c0,53.21 0.91,74.22 2.97,78.33c1.6,3.2 6.62,7.54 11.65,10.05c11.65,5.71 24.66,2.28 31.06,-8.45c4.11,-6.62 4.57,-11.88 4.57,-62.8c0,-60.97 0.91,-65.77 13.7,-72.39c13.7,-7.08 31.28,-2.28 37.68,10.28c2.74,5.48 3.43,16.9 3.43,61.66c0,60.51 0.91,65.31 13.7,71.93c8.45,4.34 14.38,4.34 22.84,0c11.64,-5.94 13.7,-13.24 13.7,-48.64c0,-29.23 0.46,-32.43 5.25,-39.5c2.74,-4.11 8.91,-8.91 13.47,-10.73c12.1,-4.79 23.75,1.37 31.29,16.21c5.48,10.73 5.48,12.33 6.62,79.92c2.06,125.6 -7.31,221.74 -27.17,280.88c-3.66,11.19 -6.62,23.29 -6.62,27.17c0,9.36 12.79,22.38 22.38,22.38c17.36,0 24.44,-7.76 33.57,-37.91c21.24,-68.96 29.69,-154.6 28.09,-287.5c-0.91,-79.47 -1.14,-82.67 -6.39,-95.91c-6.62,-17.35 -13.25,-27.4 -24.21,-38.14c-17.36,-16.67 -44.99,-23.52 -68.51,-17.13l-11.65,2.97l-2.74,-7.31c-4.56,-12.56 -21.91,-29.68 -37.9,-37.68c-12.1,-5.94 -17.35,-7.08 -31.29,-7.31c-9.82,0 -20.78,1.6 -26.94,3.65c-9.59,3.43 -10.28,3.43 -12.33,-0.23c-1.14,-2.06 -6.62,-8.68 -12.11,-14.39c-17.58,-18.72 -45.9,-27.17 -73.07,-21.92l-9.59,2.06l-0.69,-56.86c-0.68,-55.72 -0.68,-56.86 -6.62,-69.42c-12.56,-26.72 -37.22,-43.16 -66.91,-44.76c-11.64,-0.68 -19.41,0.47 -28.09,3.43Z" style="fill:#fff;fill-rule:nonzero;"/><path d="M587.89,290.46c-9.13,9.13 -10.28,18.95 -3.2,30.37c7.08,11.64 13.47,12.56 94.08,11.64l72.39,-0.68l6.85,-6.62c3.65,-3.42 7.3,-8.91 8.22,-12.1c1.82,-7.99 -2.74,-20.32 -9.59,-25.8c-5.71,-4.34 -9.13,-4.57 -83.35,-4.57l-77.64,0l-7.76,7.76Z" style="fill:#fff;fill-rule:nonzero;"/><path d="M165.43,301.88c-17.58,7.76 -19.87,30.6 -4.57,42.93c4.34,3.65 12.33,4.11 83.12,4.11l78.56,0l6.62,-6.62c5.25,-5.48 6.62,-8.68 6.62,-16.67c0,-11.87 -4.8,-19.41 -15.07,-23.75c-10.96,-4.57 -144.78,-4.57 -155.28,0Z" style="fill:#fff;fill-rule:nonzero;"/></g></svg>