<svg viewBox="0 0 35 35" xmlns="http://www.w3.org/2000/svg" fill-rule="evenodd" clip-rule="evenodd" stroke-linejoin="round" stroke-miterlimit="1.414"><g opacity=".6" fill="#fff"><path d="M25.327 23.184c0 1.31-.511 2.537-1.403 3.365-.331.308-.829.674-1.323.674l-8.162.004h-.002a3.085 3.085 0 0 1-2.529-1.32L7.444 19.5a1.11 1.11 0 0 1-.18-.833 1.103 1.103 0 0 1 1.29-.898c.295.052.549.215.718.457l.689.986.053.065c.796.992 1.277 1.592 2.393 1.592.429 0 1.768-.163 1.937-2.144a.752.752 0 0 0 .017-.159V8.37a.836.836 0 0 1 1.67 0v8.996a.714.714 0 0 0 1.428 0v-.302c0-.398.286-.708.685-.77.049.01.099.016.15.016.453 0 .835.389.835.848a.714.714 0 1 0 1.429 0c0-.441.35-.803.789-.827a.708.708 0 0 0 .047.002c.46 0 .835.376.835.837a.713.713 0 1 0 1.428 0c0-.221.087-.43.246-.589a.831.831 0 0 1 .588-.245h.001c.461 0 .835.375.835.835v6.013zm-.835-8.277c-.598 0-1.143.233-1.548.614a2.253 2.253 0 0 0-1.473-.615.678.678 0 0 0-.077-.005c-.595 0-1.138.231-1.543.606a2.238 2.238 0 0 0-1.322-.613.699.699 0 0 0-.235-.04c-.296 0-.577.053-.835.15V8.37a2.266 2.266 0 0 0-2.263-2.264 2.267 2.267 0 0 0-2.264 2.264v9.924c0 1.146-.395 1.146-.525 1.146-.396 0-.503-.089-1.28-1.057l-.683-.973a2.545 2.545 0 0 0-3.538-.634 2.546 2.546 0 0 0-.634 3.54l4.464 6.408a4.512 4.512 0 0 0 3.701 1.932h.003l8.162-.005c.769 0 1.541-.355 2.294-1.055 1.182-1.098 1.86-2.706 1.86-4.412v-6.143a.743.743 0 0 0-.019-.164 2.27 2.27 0 0 0-2.245-1.97z"/><path d="M17.381 33.334c-8.796 0-15.952-7.157-15.952-15.953S8.585 1.429 17.381 1.429c8.795 0 15.952 7.156 15.952 15.952s-7.157 15.953-15.952 15.953m0-33.334C7.797 0 0 7.797 0 17.381s7.797 17.381 17.381 17.381c9.583 0 17.38-7.797 17.38-17.381S26.964 0 17.381 0"/></g></svg>