<?xml version="1.0" encoding="UTF-8" standalone="no"?><!DOCTYPE svg PUBLIC "-//W3C//DTD SVG 1.1//EN" "http://www.w3.org/Graphics/SVG/1.1/DTD/svg11.dtd"><svg width="100%" height="100%" viewBox="0 0 35 35" version="1.1" xmlns="http://www.w3.org/2000/svg" xmlns:xlink="http://www.w3.org/1999/xlink" xml:space="preserve" style="fill-rule:evenodd;clip-rule:evenodd;stroke-linejoin:round;stroke-miterlimit:1.41421;"><g id="Page.-1"><g opacity="0.6"><path id="Fill.-1" d="M25.327,23.184c0,1.31 -0.511,2.537 -1.403,3.365c-0.331,0.308 -0.829,0.674 -1.323,0.674l-8.162,0.004l-0.002,0c-1.007,0 -1.952,-0.493 -2.529,-1.32l-4.464,-6.407c-0.168,-0.243 -0.233,-0.539 -0.18,-0.833c0.052,-0.294 0.216,-0.55 0.458,-0.718c0.187,-0.131 0.406,-0.198 0.631,-0.198c0.067,0 0.134,0.005 0.201,0.018c0.295,0.052 0.549,0.215 0.718,0.457l0.689,0.986l0.053,0.065c0.796,0.992 1.277,1.592 2.393,1.592c0.429,0 1.768,-0.163 1.937,-2.144c0.011,-0.051 0.017,-0.104 0.017,-0.159l0,-10.196c0,-0.461 0.375,-0.835 0.835,-0.835c0.46,0 0.835,0.374 0.835,0.835l0,8.996c0,0.394 0.32,0.714 0.714,0.714c0.395,0 0.714,-0.32 0.714,-0.714l0,-0.302c0,-0.398 0.286,-0.708 0.685,-0.77c0.049,0.01 0.099,0.016 0.15,0.016c0.453,0 0.835,0.389 0.835,0.848c0,0.395 0.32,0.714 0.715,0.714c0.395,0 0.714,-0.319 0.714,-0.714c0,-0.441 0.35,-0.803 0.789,-0.827c0.015,0.001 0.031,0.002 0.047,0.002c0.46,0 0.835,0.376 0.835,0.837c0,0.395 0.319,0.714 0.714,0.714c0.395,0 0.714,-0.319 0.714,-0.714c0,-0.221 0.087,-0.43 0.246,-0.589c0.158,-0.157 0.367,-0.245 0.588,-0.245l0.001,0c0.461,0 0.835,0.375 0.835,0.835l0,6.013Zm-0.835,-8.277c-0.598,0 -1.143,0.233 -1.548,0.614c-0.388,-0.366 -0.905,-0.596 -1.473,-0.615c-0.026,-0.003 -0.052,-0.005 -0.077,-0.005c-0.595,0 -1.138,0.231 -1.543,0.606c-0.352,-0.337 -0.812,-0.561 -1.322,-0.613c-0.073,-0.026 -0.152,-0.04 -0.235,-0.04c-0.296,0 -0.577,0.053 -0.835,0.15l0,-6.634c0,-1.248 -1.015,-2.264 -2.263,-2.264c-1.248,0 -2.264,1.016 -2.264,2.264l0,9.924c0,1.146 -0.395,1.146 -0.525,1.146c-0.396,0 -0.503,-0.089 -1.28,-1.057l-0.683,-0.973c-0.8,-1.15 -2.389,-1.434 -3.538,-0.634c-1.151,0.802 -1.435,2.39 -0.634,3.54l4.464,6.408c0.843,1.21 2.226,1.932 3.701,1.932l0.003,0l8.162,-0.005c0.769,0 1.541,-0.355 2.294,-1.055c1.182,-1.098 1.86,-2.706 1.86,-4.412l0,-6.143c0,-0.056 -0.007,-0.111 -0.019,-0.164c-0.145,-1.109 -1.096,-1.969 -2.245,-1.97Z" style="fill:#fff;"/><path id="Fill.-3" d="M17.381,33.334c-8.796,0 -15.952,-7.157 -15.952,-15.953c0,-8.796 7.156,-15.952 15.952,-15.952c8.795,0 15.952,7.156 15.952,15.952c0,8.796 -7.157,15.953 -15.952,15.953m0,-33.334c-9.584,0 -17.381,7.797 -17.381,17.381c0,9.584 7.797,17.381 17.381,17.381c9.583,0 17.38,-7.797 17.38,-17.381c0,-9.584 -7.797,-17.381 -17.38,-17.381" style="fill:#fff;"/></g></g></svg>