<svg viewBox="0 0 24 24" xmlns="http://www.w3.org/2000/svg" fill-rule="evenodd" clip-rule="evenodd" stroke-linejoin="round" stroke-miterlimit="1.414"><path d="M1.325 24A1.325 1.325 0 0 1 0 22.675V1.325C0 .593.593 0 1.325 0h21.35C23.407 0 24 .593 24 1.325v21.35c0 .732-.593 1.325-1.325 1.325H16.56v-9.294h3.119l.467-3.622H16.56V8.771c0-1.048.291-1.763 1.795-1.763l1.918-.001V3.768c-.332-.045-1.471-.143-2.795-.143-2.766 0-4.659 1.688-4.659 4.788v2.671H9.692v3.622h3.127V24H1.325z" fill="#bfbfbf"/></svg>