<svg viewBox="0 0 24 24" xmlns="http://www.w3.org/2000/svg" fill-rule="evenodd" clip-rule="evenodd" stroke-linejoin="round" stroke-miterlimit="1.414"><path d="M11.999 0C5.373 0 0 5.509 0 12.304c0 5.436 3.438 10.047 8.207 11.674.6.113.819-.266.819-.593 0-.291-.011-1.065-.017-2.092-3.337.743-4.042-1.65-4.042-1.65-.546-1.421-1.332-1.799-1.332-1.799-1.09-.763.082-.748.082-.748 1.205.087 1.838 1.268 1.838 1.268 1.071 1.88 2.809 1.337 3.493 1.022.109-.795.419-1.337.762-1.644-2.665-.311-5.467-1.367-5.467-6.081 0-1.343.468-2.442 1.236-3.302-.124-.311-.536-1.563.118-3.256 0 0 1.007-.331 3.299 1.261A11.234 11.234 0 0 1 12 5.95c1.02.005 2.046.141 3.005.414 2.291-1.592 3.296-1.261 3.296-1.261.655 1.693.243 2.945.12 3.256.769.86 1.233 1.959 1.233 3.302 0 4.726-2.806 5.766-5.478 6.071.43.38.814 1.13.814 2.279 0 1.644-.015 2.971-.015 3.374 0 .33.217.713.825.592 4.765-1.63 8.2-6.238 8.2-11.673C24 5.509 18.627 0 11.999 0" fill="#bfbfbf"/></svg>