<svg viewBox="0 0 69 24" xmlns="http://www.w3.org/2000/svg" fill-rule="evenodd" clip-rule="evenodd" stroke-linejoin="round" stroke-miterlimit="1.414"><g opacity=".7" fill="#fff"><path d="M64.584 4.903s.407-.185.508-.638h.903v.778h-1.456l.045-.14zM67.419 7.392s.406-.185.508-.638h.902v.777h-1.455l.045-.139zM65.713 9.594s.406-.186.508-.638h.903v.778h-1.456l.045-.14z"/><path d="M59.697 5.454h6.295v-.559h-6.295v.559zM58.44 7.935h10.393v-.558H58.44v.558zM61.807 10.126h4.9v-.559h-4.9v.559zM61.27 12.338h5.477v-.559H61.27v.559zM61.27 14.331h5.477v-.559H61.27v.559z"/><path d="M60.826 15.263h.883v-5.187h-.883v5.187zM66.219 15.284h.909V9.632h-.909v5.652zM62.567 7.656h.922V3.189h-.922v4.467z"/><path d="M67.013 3.913s-2.373 4.845-9.404 7.726l.09.257s6.851-2 10.153-7.45l-.839-.533zM52.885 4.96s.406-.185.508-.638h.903V5.1h-1.457l.046-.14zM52.569 12.156s.406-.186.508-.639h.903v.778h-1.456l.045-.139z"/><path d="M46.913 5.523h7.378v-.558h-7.378v.558zM47.712 6.554h5.514v-.559h-5.514v.559zM47.725 7.669h5.514V7.11h-5.514v.559zM47.712 8.7h5.514v-.558h-5.514V8.7zM47.712 9.76h5.514v-.559h-5.514v.559zM42.83 7.8h2.818v-.559H42.83V7.8z"/><path d="M44.877 9.745h.923V7.222h-.923v2.523zM53.176 4.963s.321-.147.401-.505h.714v.615H53.14l.036-.11z"/><path d="M44.684 7.23s.322-.147.402-.505h.713v.615h-1.151l.036-.11zM43.53 12.661h10.45v-.559H43.53v.559z"/><path d="M52.856 12.101s.32-.146.401-.505h.714v.615h-1.152l.037-.11zM52.325 6.013s.337-.153.421-.528h.747v.644h-1.205l.037-.116zM44.864 7.274s.27-.134.337-.459h.599v.559h-.966l.03-.1zM43.718 4.043l.147-.234s1.338.331 1.94 1.528l-.696.509s-.763-1.486-1.391-1.803M47.933 3.237l.128-.161s.883.103 1.51 1.069l-.769.425s-.285-.878-.869-1.333M51.28 3.359s-.424 1.442-.584 1.712h.248s.847-.901 1.417-1.682l-1.081-.03zM43.129 10.308l1.82-.853.134.234-1.365 1.651-.589-1.032zM45.752 9.209s.423 1.069 3.028 1.133c0 0 3.404.184 5.121-.128v.756s-7.226.826-8.27-1.514l.121-.247z"/><path d="M47.312 9.86h.896V5.589h-.896V9.86zM52.581 9.876h.91V6.01h-.91v3.866zM46.617 13.176l.146-.152s1.044.248 1.66 1.184l-.695.619s-.831-1.555-1.111-1.651M50.647 11.391h.908v3.099c0 .306-.071.603-.315.787-.137.103-.411.243-.587.191-.231-.069-.188-.372-.312-.53-.131-.167-.443-.207-.639-.207l.008-.196h.557s.391.06.391-.332c0-.391-.011-2.812-.011-2.812M27.659 5.906h5.694v-.559h-5.694v.559zM34.267 4.765h3.471v-.559h-3.471v.559zM34.48 9.565h4.02v-.559h-4.02v.559z"/><path d="M29.823 7.671h.915V3.407h-.915v4.264zM33.927 15.304h.849V3.538h-.849v11.766zM29.823 15.373h.915V9.877h-.915v5.496zM31.958 5.345s.402-.184.503-.632h.893v.77h-1.441l.045-.138zM31.958 11.953s.402-.184.503-.633h.893v.771h-1.441l.045-.138zM36.828 4.236s.403-.184.503-.632h.894v.77h-1.442l.045-.138zM32.001 9.72s.402-.183.503-.632h.894v.771h-1.442l.045-.139zM31.982 7.496s.403-.184.503-.632h.894v.769h-1.442l.045-.137z"/><path d="M27.207 8.059h6.171V7.5h-6.171v.559zM27.241 10.27h6.151v-.559h-6.151v.559z"/><path d="M32.287 9.697s.318-.146.397-.5h.707v.608h-1.14l.036-.108zM27.663 12.457h5.693v-.559h-5.693v.559zM28.512 8.109l.194-.118s.734.763 1.06 1.453l-.715.318s-.362-1.463-.539-1.653M31.233 7.9l1.087.445s-1.016 1.118-1.352 1.39l-.141-.091s.282-.89.406-1.744M37.338 4.205v3.186s.047.424-.302.424h-.364v.211s.523.033.523.343c0 .31 1.03.538 1.03-.978V4.172l-.887.033zM37.584 8.996s-.31 3.774-2.563 6.399l.095.16s2.93-2.601 3.405-6.477l-.937-.082z"/><path d="M35.305 9.626s.636 3.471 3.763 4.902l-.716.94s-2.663-1.345-3.246-5.802l.199-.04z"/><g><path d="M28.743 20.422h.333V18.32h-.621v.423h-.326v-.739h2.268v.739h-.325v-.423h-.622v2.102h.334v.301h-1.041v-.301zM31.458 20.422h.329v-2.121h-.329v-.297h1.037v.297h-.333v.905h1.37v-.905h-.333v-.297h1.036v.297h-.329v2.121h.329v.301h-1.036v-.301h.333v-.901h-1.37v.901h.333v.301h-1.037v-.301zM35.38 20.422h.329v-2.121h-.329v-.297h1.913v.632h-.325v-.316h-.884v.874h.936v.316h-.936v.897h.947v-.328h.326v.644H35.38v-.301zM44.056 19.309c.289 0 .48-.192.48-.511 0-.212-.083-.359-.248-.428a.908.908 0 0 0-.326-.05h-.437v.989h.531zm-1.235 1.113h.329v-2.121h-.329v-.296h1.145c.188 0 .341.007.487.057.277.096.46.335.46.705 0 .392-.209.673-.546.762v.008s.067.038.112.127l.375.669c.041.074.089.089.183.089h.079v.3h-.225c-.225 0-.277-.042-.367-.204l-.408-.742c-.067-.116-.116-.151-.277-.151h-.314v.797h.325v.3h-1.029v-.3zM46.178 20.422h.33v-2.121h-.33v-.297h1.913v.632h-.326v-.316h-.884v.874h.936v.316h-.936v.897h.948v-.328h.326v.644h-1.977v-.301zM50.486 19.386c.12 0 .213-.019.295-.053.169-.077.266-.251.266-.485 0-.22-.086-.382-.236-.462a.656.656 0 0 0-.321-.066h-.494v1.066h.49zm-1.194 1.036h.329v-2.121h-.329v-.297h1.231c.161 0 .322.012.453.074.274.119.449.408.449.77 0 .381-.194.689-.497.796a1.088 1.088 0 0 1-.397.058h-.535v.72h.333v.301h-1.037v-.301zM53.824 20.426c.535 0 .969-.47.969-1.082 0-.593-.434-1.047-.969-1.047-.539 0-.973.454-.973 1.047 0 .612.434 1.082.973 1.082m0-2.468c.764 0 1.359.605 1.359 1.386 0 .801-.595 1.425-1.359 1.425-.767 0-1.359-.624-1.359-1.425 0-.781.592-1.386 1.359-1.386M57.518 19.309c.288 0 .479-.192.479-.511 0-.212-.082-.359-.247-.428a.908.908 0 0 0-.326-.05h-.438v.989h.532zm-1.235 1.113h.329v-2.121h-.329v-.296h1.145c.187 0 .34.007.487.057.277.096.46.335.46.705 0 .392-.21.673-.546.762v.008s.067.038.112.127l.374.669c.041.074.09.089.184.089h.078v.3h-.224c-.225 0-.277-.042-.367-.204l-.408-.742c-.068-.116-.116-.151-.277-.151h-.315v.797h.326v.3h-1.029v-.3zM60.149 20.422h.333V18.32h-.622v.423h-.325v-.739h2.268v.739h-.325v-.423h-.622v2.102h.333v.301h-1.04v-.301zM62.858 20.422h.33v-2.121h-.33v-.297h1.913v.632h-.326v-.316h-.883v.874h.936v.316h-.936v.897h.947v-.328h.326v.644h-1.977v-.301zM67.207 19.309c.288 0 .479-.192.479-.511 0-.212-.082-.359-.247-.428a.906.906 0 0 0-.325-.05h-.438v.989h.531zm-1.235 1.113h.329v-2.121h-.329v-.296h1.145c.187 0 .341.007.487.057.277.096.46.335.46.705 0 .392-.209.673-.546.762v.008s.067.038.112.127l.374.669c.042.074.091.089.184.089h.078v.3h-.224c-.225 0-.277-.042-.367-.204l-.408-.742c-.067-.116-.116-.151-.277-.151h-.314v.797h.325v.3h-1.029v-.3z"/></g></g><g fill="#fff"><path d="M22 19.573l-8.619-2.097V6.524L22 3.961v15.612z" fill-opacity=".698"/><path d="M0 24l13.608-6.524V6.524L0 0v24z" fill-opacity=".498"/></g></svg>