<?xml version="1.0" encoding="UTF-8" standalone="no"?><!DOCTYPE svg PUBLIC "-//W3C//DTD SVG 1.1//EN" "http://www.w3.org/Graphics/SVG/1.1/DTD/svg11.dtd"><svg width="100%" height="100%" viewBox="0 0 69 24" version="1.1" xmlns="http://www.w3.org/2000/svg" xmlns:xlink="http://www.w3.org/1999/xlink" xml:space="preserve" style="fill-rule:evenodd;clip-rule:evenodd;stroke-linejoin:round;stroke-miterlimit:1.41421;"><g id="logo"><g id="Typography"><g opacity="0.7"><g id="Group"><path id="Fill.-327" d="M64.584,4.903c0,0 0.407,-0.185 0.508,-0.638l0.903,0l0,0.778l-1.456,0l0.045,-0.14Z" style="fill:#fff;"/><path id="Fill.-328" d="M67.419,7.392c0,0 0.406,-0.185 0.508,-0.638l0.902,0l0,0.777l-1.455,0l0.045,-0.139Z" style="fill:#fff;"/><path id="Fill.-329" d="M65.713,9.594c0,0 0.406,-0.186 0.508,-0.638l0.903,0l0,0.778l-1.456,0l0.045,-0.14Z" style="fill:#fff;"/><path id="Fill.-330" d="M59.697,5.454l6.295,0l0,-0.559l-6.295,0l0,0.559Z" style="fill:#fff;"/><path id="Fill.-331" d="M58.44,7.935l10.393,0l0,-0.558l-10.393,0l0,0.558Z" style="fill:#fff;"/><path id="Fill.-332" d="M61.807,10.126l4.9,0l0,-0.559l-4.9,0l0,0.559Z" style="fill:#fff;"/><path id="Fill.-333" d="M61.27,12.338l5.477,0l0,-0.559l-5.477,0l0,0.559Z" style="fill:#fff;"/><path id="Fill.-334" d="M61.27,14.331l5.477,0l0,-0.559l-5.477,0l0,0.559Z" style="fill:#fff;"/><path id="Fill.-335" d="M60.826,15.263l0.883,0l0,-5.187l-0.883,0l0,5.187Z" style="fill:#fff;"/><path id="Fill.-336" d="M66.219,15.284l0.909,0l0,-5.652l-0.909,0l0,5.652Z" style="fill:#fff;"/><path id="Fill.-337" d="M62.567,7.656l0.922,0l0,-4.467l-0.922,0l0,4.467Z" style="fill:#fff;"/><path id="Fill.-338" d="M67.013,3.913c0,0 -2.373,4.845 -9.404,7.726l0.09,0.257c0,0 6.851,-2 10.153,-7.45l-0.839,-0.533Z" style="fill:#fff;"/><path id="Fill.-339" d="M52.885,4.96c0,0 0.406,-0.185 0.508,-0.638l0.903,0l0,0.778l-1.457,0l0.046,-0.14Z" style="fill:#fff;"/><path id="Fill.-340" d="M52.569,12.156c0,0 0.406,-0.186 0.508,-0.639l0.903,0l0,0.778l-1.456,0l0.045,-0.139Z" style="fill:#fff;"/><path id="Fill.-341" d="M46.913,5.523l7.378,0l0,-0.558l-7.378,0l0,0.558Z" style="fill:#fff;"/><path id="Fill.-342" d="M47.712,6.554l5.514,0l0,-0.559l-5.514,0l0,0.559Z" style="fill:#fff;"/><path id="Fill.-343" d="M47.725,7.669l5.514,0l0,-0.559l-5.514,0l0,0.559Z" style="fill:#fff;"/><path id="Fill.-344" d="M47.712,8.7l5.514,0l0,-0.558l-5.514,0l0,0.558Z" style="fill:#fff;"/><path id="Fill.-345" d="M47.712,9.76l5.514,0l0,-0.559l-5.514,0l0,0.559Z" style="fill:#fff;"/><path id="Fill.-346" d="M42.83,7.8l2.818,0l0,-0.559l-2.818,0l0,0.559Z" style="fill:#fff;"/><path id="Fill.-347" d="M44.877,9.745l0.923,0l0,-2.523l-0.923,0l0,2.523Z" style="fill:#fff;"/><path id="Fill.-348" d="M53.176,4.963c0,0 0.321,-0.147 0.401,-0.505l0.714,0l0,0.615l-1.151,0l0.036,-0.11Z" style="fill:#fff;"/><path id="Fill.-349" d="M44.684,7.23c0,0 0.322,-0.147 0.402,-0.505l0.713,0l0,0.615l-1.151,0l0.036,-0.11Z" style="fill:#fff;"/><path id="Fill.-350" d="M43.53,12.661l10.45,0l0,-0.559l-10.45,0l0,0.559Z" style="fill:#fff;"/><path id="Fill.-351" d="M52.856,12.101c0,0 0.32,-0.146 0.401,-0.505l0.714,0l0,0.615l-1.152,0l0.037,-0.11Z" style="fill:#fff;"/><path id="Fill.-352" d="M52.325,6.013c0,0 0.337,-0.153 0.421,-0.528l0.747,0l0,0.644l-1.205,0l0.037,-0.116Z" style="fill:#fff;"/><path id="Fill.-353" d="M44.864,7.274c0,0 0.27,-0.134 0.337,-0.459l0.599,0l0,0.559l-0.966,0l0.03,-0.1Z" style="fill:#fff;"/><path id="Fill.-354" d="M43.718,4.043l0.147,-0.234c0,0 1.338,0.331 1.94,1.528l-0.696,0.509c0,0 -0.763,-1.486 -1.391,-1.803" style="fill:#fff;"/><path id="Fill.-355" d="M47.933,3.237l0.128,-0.161c0,0 0.883,0.103 1.51,1.069l-0.769,0.425c0,0 -0.285,-0.878 -0.869,-1.333" style="fill:#fff;"/><path id="Fill.-356" d="M51.28,3.359c0,0 -0.424,1.442 -0.584,1.712l0.248,0c0,0 0.847,-0.901 1.417,-1.682l-1.081,-0.03Z" style="fill:#fff;"/><path id="Fill.-357" d="M43.129,10.308l1.82,-0.853l0.134,0.234l-1.365,1.651l-0.589,-1.032Z" style="fill:#fff;"/><path id="Fill.-358" d="M45.752,9.209c0,0 0.423,1.069 3.028,1.133c0,0 3.404,0.184 5.121,-0.128l0,0.756c0,0 -7.226,0.826 -8.27,-1.514l0.121,-0.247Z" style="fill:#fff;"/><path id="Fill.-359" d="M47.312,9.86l0.896,0l0,-4.271l-0.896,0l0,4.271Z" style="fill:#fff;"/><path id="Fill.-360" d="M52.581,9.876l0.91,0l0,-3.866l-0.91,0l0,3.866Z" style="fill:#fff;"/><path id="Fill.-361" d="M46.617,13.176l0.146,-0.152c0,0 1.044,0.248 1.66,1.184l-0.695,0.619c0,0 -0.831,-1.555 -1.111,-1.651" style="fill:#fff;"/><path id="Fill.-362" d="M50.647,11.391l0.908,0l0,3.099c0,0.306 -0.071,0.603 -0.315,0.787c-0.137,0.103 -0.411,0.243 -0.587,0.191c-0.231,-0.069 -0.188,-0.372 -0.312,-0.53c-0.131,-0.167 -0.443,-0.207 -0.639,-0.207l0.008,-0.196l0.557,0c0,0 0.391,0.06 0.391,-0.332c0,-0.391 -0.011,-2.812 -0.011,-2.812" style="fill:#fff;"/><path id="Fill.-363" d="M27.659,5.906l5.694,0l0,-0.559l-5.694,0l0,0.559Z" style="fill:#fff;"/><path id="Fill.-364" d="M34.267,4.765l3.471,0l0,-0.559l-3.471,0l0,0.559Z" style="fill:#fff;"/><path id="Fill.-365" d="M34.48,9.565l4.02,0l0,-0.559l-4.02,0l0,0.559Z" style="fill:#fff;"/><path id="Fill.-366" d="M29.823,7.671l0.915,0l0,-4.264l-0.915,0l0,4.264Z" style="fill:#fff;"/><path id="Fill.-367" d="M33.927,15.304l0.849,0l0,-11.766l-0.849,0l0,11.766Z" style="fill:#fff;"/><path id="Fill.-368" d="M29.823,15.373l0.915,0l0,-5.496l-0.915,0l0,5.496Z" style="fill:#fff;"/><path id="Fill.-369" d="M31.958,5.345c0,0 0.402,-0.184 0.503,-0.632l0.893,0l0,0.77l-1.441,0l0.045,-0.138Z" style="fill:#fff;"/><path id="Fill.-370" d="M31.958,11.953c0,0 0.402,-0.184 0.503,-0.633l0.893,0l0,0.771l-1.441,0l0.045,-0.138Z" style="fill:#fff;"/><path id="Fill.-371" d="M36.828,4.236c0,0 0.403,-0.184 0.503,-0.632l0.894,0l0,0.77l-1.442,0l0.045,-0.138Z" style="fill:#fff;"/><path id="Fill.-372" d="M32.001,9.72c0,0 0.402,-0.183 0.503,-0.632l0.894,0l0,0.771l-1.442,0l0.045,-0.139Z" style="fill:#fff;"/><path id="Fill.-373" d="M31.982,7.496c0,0 0.403,-0.184 0.503,-0.632l0.894,0l0,0.769l-1.442,0l0.045,-0.137Z" style="fill:#fff;"/><path id="Fill.-374" d="M27.207,8.059l6.171,0l0,-0.559l-6.171,0l0,0.559Z" style="fill:#fff;"/><path id="Fill.-375" d="M27.241,10.27l6.151,0l0,-0.559l-6.151,0l0,0.559Z" style="fill:#fff;"/><path id="Fill.-376" d="M32.287,9.697c0,0 0.318,-0.146 0.397,-0.5l0.707,0l0,0.608l-1.14,0l0.036,-0.108Z" style="fill:#fff;"/><path id="Fill.-377" d="M27.663,12.457l5.693,0l0,-0.559l-5.693,0l0,0.559Z" style="fill:#fff;"/><path id="Fill.-378" d="M28.512,8.109l0.194,-0.118c0,0 0.734,0.763 1.06,1.453l-0.715,0.318c0,0 -0.362,-1.463 -0.539,-1.653" style="fill:#fff;"/><path id="Fill.-379" d="M31.233,7.9l1.087,0.445c0,0 -1.016,1.118 -1.352,1.39l-0.141,-0.091c0,0 0.282,-0.89 0.406,-1.744" style="fill:#fff;"/><path id="Fill.-380" d="M37.338,4.205l0,3.186c0,0 0.047,0.424 -0.302,0.424l-0.364,0l0,0.211c0,0 0.523,0.033 0.523,0.343c0,0.31 1.03,0.538 1.03,-0.978l0,-3.219l-0.887,0.033Z" style="fill:#fff;"/><path id="Fill.-381" d="M37.584,8.996c0,0 -0.31,3.774 -2.563,6.399l0.095,0.16c0,0 2.93,-2.601 3.405,-6.477l-0.937,-0.082Z" style="fill:#fff;"/><path id="Fill.-382" d="M35.305,9.626c0,0 0.636,3.471 3.763,4.902l-0.716,0.94c0,0 -2.663,-1.345 -3.246,-5.802l0.199,-0.04Z" style="fill:#fff;"/></g><g id="Group1"><path id="Fill.-383" d="M28.743,20.422l0.333,0l0,-2.102l-0.621,0l0,0.423l-0.326,0l0,-0.739l2.268,0l0,0.739l-0.325,0l0,-0.423l-0.622,0l0,2.102l0.334,0l0,0.301l-1.041,0l0,-0.301Z" style="fill:#fff;"/><path id="Fill.-384" d="M31.458,20.422l0.329,0l0,-2.121l-0.329,0l0,-0.297l1.037,0l0,0.297l-0.333,0l0,0.905l1.37,0l0,-0.905l-0.333,0l0,-0.297l1.036,0l0,0.297l-0.329,0l0,2.121l0.329,0l0,0.301l-1.036,0l0,-0.301l0.333,0l0,-0.901l-1.37,0l0,0.901l0.333,0l0,0.301l-1.037,0l0,-0.301Z" style="fill:#fff;"/><path id="Fill.-385" d="M35.38,20.422l0.329,0l0,-2.121l-0.329,0l0,-0.297l1.913,0l0,0.632l-0.325,0l0,-0.316l-0.884,0l0,0.874l0.936,0l0,0.316l-0.936,0l0,0.897l0.947,0l0,-0.328l0.326,0l0,0.644l-1.977,0l0,-0.301Z" style="fill:#fff;"/><path id="Fill.-386" d="M44.056,19.309c0.289,0 0.48,-0.192 0.48,-0.511c0,-0.212 -0.083,-0.359 -0.248,-0.428c-0.086,-0.034 -0.198,-0.05 -0.326,-0.05l-0.437,0l0,0.989l0.531,0Zm-1.235,1.113l0.329,0l0,-2.121l-0.329,0l0,-0.296l1.145,0c0.188,0 0.341,0.007 0.487,0.057c0.277,0.096 0.46,0.335 0.46,0.705c0,0.392 -0.209,0.673 -0.546,0.762l0,0.008c0,0 0.067,0.038 0.112,0.127l0.375,0.669c0.041,0.074 0.089,0.089 0.183,0.089l0.079,0l0,0.3l-0.225,0c-0.225,0 -0.277,-0.042 -0.367,-0.204l-0.408,-0.742c-0.067,-0.116 -0.116,-0.151 -0.277,-0.151l-0.314,0l0,0.797l0.325,0l0,0.3l-1.029,0l0,-0.3Z" style="fill:#fff;"/><path id="Fill.-387" d="M46.178,20.422l0.33,0l0,-2.121l-0.33,0l0,-0.297l1.913,0l0,0.632l-0.326,0l0,-0.316l-0.884,0l0,0.874l0.936,0l0,0.316l-0.936,0l0,0.897l0.948,0l0,-0.328l0.326,0l0,0.644l-1.977,0l0,-0.301Z" style="fill:#fff;"/><path id="Fill.-388" d="M50.486,19.386c0.12,0 0.213,-0.019 0.295,-0.053c0.169,-0.077 0.266,-0.251 0.266,-0.485c0,-0.22 -0.086,-0.382 -0.236,-0.462c-0.082,-0.047 -0.194,-0.066 -0.321,-0.066l-0.494,0l0,1.066l0.49,0Zm-1.194,1.036l0.329,0l0,-2.121l-0.329,0l0,-0.297l1.231,0c0.161,0 0.322,0.012 0.453,0.074c0.274,0.119 0.449,0.408 0.449,0.77c0,0.381 -0.194,0.689 -0.497,0.796c-0.124,0.047 -0.251,0.058 -0.397,0.058l-0.535,0l0,0.72l0.333,0l0,0.301l-1.037,0l0,-0.301Z" style="fill:#fff;"/><path id="Fill.-389" d="M53.824,20.426c0.535,0 0.969,-0.47 0.969,-1.082c0,-0.593 -0.434,-1.047 -0.969,-1.047c-0.539,0 -0.973,0.454 -0.973,1.047c0,0.612 0.434,1.082 0.973,1.082m0,-2.468c0.764,0 1.359,0.605 1.359,1.386c0,0.801 -0.595,1.425 -1.359,1.425c-0.767,0 -1.359,-0.624 -1.359,-1.425c0,-0.781 0.592,-1.386 1.359,-1.386" style="fill:#fff;"/><path id="Fill.-390" d="M57.518,19.309c0.288,0 0.479,-0.192 0.479,-0.511c0,-0.212 -0.082,-0.359 -0.247,-0.428c-0.086,-0.034 -0.198,-0.05 -0.326,-0.05l-0.438,0l0,0.989l0.532,0Zm-1.235,1.113l0.329,0l0,-2.121l-0.329,0l0,-0.296l1.145,0c0.187,0 0.34,0.007 0.487,0.057c0.277,0.096 0.46,0.335 0.46,0.705c0,0.392 -0.21,0.673 -0.546,0.762l0,0.008c0,0 0.067,0.038 0.112,0.127l0.374,0.669c0.041,0.074 0.09,0.089 0.184,0.089l0.078,0l0,0.3l-0.224,0c-0.225,0 -0.277,-0.042 -0.367,-0.204l-0.408,-0.742c-0.068,-0.116 -0.116,-0.151 -0.277,-0.151l-0.315,0l0,0.797l0.326,0l0,0.3l-1.029,0l0,-0.3Z" style="fill:#fff;"/><path id="Fill.-391" d="M60.149,20.422l0.333,0l0,-2.102l-0.622,0l0,0.423l-0.325,0l0,-0.739l2.268,0l0,0.739l-0.325,0l0,-0.423l-0.622,0l0,2.102l0.333,0l0,0.301l-1.04,0l0,-0.301Z" style="fill:#fff;"/><path id="Fill.-392" d="M62.858,20.422l0.33,0l0,-2.121l-0.33,0l0,-0.297l1.913,0l0,0.632l-0.326,0l0,-0.316l-0.883,0l0,0.874l0.936,0l0,0.316l-0.936,0l0,0.897l0.947,0l0,-0.328l0.326,0l0,0.644l-1.977,0l0,-0.301Z" style="fill:#fff;"/><path id="Fill.-393" d="M67.207,19.309c0.288,0 0.479,-0.192 0.479,-0.511c0,-0.212 -0.082,-0.359 -0.247,-0.428c-0.086,-0.034 -0.198,-0.05 -0.325,-0.05l-0.438,0l0,0.989l0.531,0Zm-1.235,1.113l0.329,0l0,-2.121l-0.329,0l0,-0.296l1.145,0c0.187,0 0.341,0.007 0.487,0.057c0.277,0.096 0.46,0.335 0.46,0.705c0,0.392 -0.209,0.673 -0.546,0.762l0,0.008c0,0 0.067,0.038 0.112,0.127l0.374,0.669c0.042,0.074 0.091,0.089 0.184,0.089l0.078,0l0,0.3l-0.224,0c-0.225,0 -0.277,-0.042 -0.367,-0.204l-0.408,-0.742c-0.067,-0.116 -0.116,-0.151 -0.277,-0.151l-0.314,0l0,0.797l0.325,0l0,0.3l-1.029,0l0,-0.3Z" style="fill:#fff;"/></g></g></g><g id="Icon"><path id="Fill.-1" d="M22,19.573l-8.619,-2.097l0,-10.952l8.619,-2.563l0,15.612Z" style="fill:#fff;fill-opacity:0.698039;"/><path id="Fill.-2" d="M0,24l13.608,-6.524l0,-10.952l-13.608,-6.524l0,24Z" style="fill:#fff;fill-opacity:0.498039;"/></g></g></svg>