<svg width="32" height="32" xmlns="http://www.w3.org/2000/svg"><g transform="translate(1 1)" fill="none" fill-rule="evenodd" opacity=".7"><path d="M10.6 10.437a.26.26 0 0 0 .158-.054l4.323-3.328c.175-.134.423-.007.423.216V22.73c0 .223-.248.35-.423.216l-4.323-3.328a.26.26 0 0 0-.159-.054H6.264a.268.268 0 0 1-.264-.27v-8.585c0-.15.118-.271.264-.271h4.335zm6.227 7.092v-5.057h1.056v5.057h-1.056zm2.378 1.535v-8.128h1.056v8.128h-1.056zm2.379 1.626V9.31h1.056v11.38h-1.056z" fill="#FFF"/><circle stroke="#FFF" stroke-width="2" cx="15" cy="15" r="15"/></g></svg>